<?xml version="1.0" encoding="UTF-8"?>
<svg id="Layer_2" xmlns="http://www.w3.org/2000/svg" viewBox="0 0 465.6 125.82">
  <defs>
    <style>
      .cls-1 {
        fill: #6e6e73;
      }

      .cls-2 {
        fill: #173f74;
      }
    </style>
  </defs>
  <g id="Layer_1-2" data-name="Layer_1">
    <g>
      <rect class="cls-2" y="41.03" width="10.3" height="43.76" rx="2.73" ry="2.73"/>
      <rect class="cls-2" x="18.02" y="22.79" width="10.3" height="80.23" rx="2.73" ry="2.73"/>
      <rect class="cls-2" x="36.04" y="41.03" width="10.3" height="43.76" rx="2.73" ry="2.73"/>
      <rect class="cls-2" x="54.06" y="22.79" width="10.3" height="80.23" rx="2.73" ry="2.73"/>
      <rect class="cls-2" x="72.08" width="10.3" height="125.82" rx="2.73" ry="2.73"/>
      <rect class="cls-2" x="90.1" y="22.79" width="10.3" height="80.23" rx="2.73" ry="2.73"/>
      <rect class="cls-2" x="106.83" y="41.03" width="10.3" height="43.76" rx="2.73" ry="2.73"/>
    </g>
    <g>
      <path class="cls-1" d="M140.67,85.99c-.95,0-1.66-.13-2.11-.39s-.75-.64-.89-1.14c-.14-.5-.21-1.08-.21-1.75v-43.38c0-1.19.25-2.02.75-2.5.5-.48,1.39-.71,2.68-.71h28.73c.67,0,1.24.07,1.71.21.48.14.83.45,1.07.93.24.48.36,1.19.36,2.14s-.13,1.66-.39,2.11c-.26.45-.63.75-1.11.89-.48.14-1.05.21-1.71.21h-25.66v14.79h17.87c.67,0,1.23.07,1.68.21.45.14.8.43,1.04.86.24.43.36,1.1.36,2,0,.86-.12,1.5-.36,1.93-.24.43-.61.71-1.11.82-.5.12-1.08.18-1.75.18h-17.72v16.15h25.73c.67,0,1.24.07,1.71.21.48.14.83.44,1.07.89.24.45.36,1.15.36,2.11s-.13,1.66-.39,2.11c-.26.45-.63.75-1.11.89-.48.14-1.05.21-1.71.21h-28.87Z"/>
      <path class="cls-1" d="M184.19,85.92c-.91,0-1.58-.13-2.04-.39-.45-.26-.74-.63-.86-1.11-.12-.48-.18-1.05-.18-1.71v-28.37c0-.62.06-1.14.18-1.57.12-.43.42-.76.89-1,.48-.24,1.17-.36,2.07-.36.71,0,1.27.08,1.68.25.4.17.69.39.86.68.17.29.27.6.32.93.05.33.07.64.07.93l-.14,3.29c.48-.81,1.07-1.58,1.79-2.32s1.55-1.41,2.5-2c.95-.59,1.99-1.06,3.11-1.39,1.12-.33,2.32-.5,3.61-.5,2.1,0,4.03.37,5.79,1.11s3.28,1.81,4.54,3.21c1.26,1.41,2.24,3.09,2.93,5.04s1.04,4.17,1.04,6.64v15.51c0,.67-.06,1.24-.18,1.71-.12.48-.41.83-.86,1.07-.45.24-1.16.36-2.11.36s-1.6-.13-2.07-.39c-.48-.26-.78-.63-.89-1.11-.12-.48-.18-1.05-.18-1.71v-15.51c0-2-.35-3.74-1.04-5.22-.69-1.48-1.69-2.62-3-3.43s-2.99-1.21-5.04-1.21-3.66.4-5.11,1.21-2.57,1.95-3.36,3.43-1.18,3.21-1.18,5.22v15.58c0,.67-.07,1.24-.21,1.71-.14.48-.44.83-.89,1.07-.45.24-1.13.36-2.04.36Z"/>
      <path class="cls-1" d="M221.13,52.19l6.86.07,9.93-.14c.67,0,1.24.06,1.71.18.48.12.85.41,1.11.86.26.45.39,1.13.39,2.04s-.12,1.58-.36,2.04-.6.75-1.07.89c-.48.14-1.05.21-1.72.21l-9.79-.14-7.22.14c-1-.05-1.68-.31-2.04-.79-.36-.48-.54-1.26-.54-2.36s.21-1.81.64-2.29c.43-.48,1.12-.71,2.07-.71ZM237.14,85.99c-2.24,0-4.14-.21-5.72-.64-1.57-.43-2.85-1.09-3.82-2-.98-.9-1.68-2.08-2.11-3.54s-.64-3.25-.64-5.4v-31.51c0-.71.07-1.31.21-1.79.14-.48.43-.85.86-1.11.43-.26,1.1-.39,2-.39s1.6.13,2.07.39c.48.26.79.63.93,1.11.14.48.21,1.03.21,1.64v31.66c0,1.24.11,2.23.32,2.97.21.74.55,1.3,1,1.68.45.38,1.06.62,1.82.71.76.1,1.69.14,2.79.14.76,0,1.38.07,1.86.21.48.14.83.43,1.07.86.24.43.36,1.07.36,1.93,0,.91-.13,1.59-.39,2.04-.26.45-.64.74-1.14.86s-1.06.18-1.68.18Z"/>
      <path class="cls-1" d="M264.01,86.35c-2.86,0-5.41-.48-7.65-1.43-2.24-.95-4.13-2.25-5.68-3.89-1.55-1.64-2.74-3.54-3.57-5.68-.83-2.14-1.25-4.46-1.25-6.93,0-3.29.76-6.22,2.29-8.79,1.52-2.57,3.64-4.61,6.36-6.11,2.71-1.5,5.81-2.25,9.29-2.25,2.38,0,4.51.37,6.4,1.11,1.88.74,3.49,1.73,4.82,2.96,1.33,1.24,2.36,2.62,3.07,4.14.71,1.53,1.07,3.05,1.07,4.57,0,2.43-.57,4.14-1.71,5.14-1.14,1-2.55,1.5-4.22,1.5h-20.65c-.05,2.05.51,3.82,1.68,5.32,1.17,1.5,2.64,2.66,4.43,3.46,1.79.81,3.58,1.21,5.39,1.21,1.29,0,2.42-.07,3.39-.21s1.82-.33,2.54-.57,1.32-.48,1.82-.71.96-.48,1.39-.71.83-.4,1.21-.5c.38-.1.79-.06,1.21.11.43.17.76.49,1,.96.29.38.48.74.57,1.07.09.33.14.69.14,1.07,0,.71-.57,1.46-1.71,2.25-1.14.79-2.73,1.46-4.75,2.04-2.03.57-4.32.86-6.9.86ZM252.58,66.41h17.94c.86,0,1.52-.12,2-.36.48-.24.71-.88.71-1.93,0-1.29-.41-2.48-1.21-3.57-.81-1.1-1.92-1.98-3.32-2.64-1.41-.67-3.04-1-4.89-1-2.05,0-3.94.42-5.68,1.25-1.74.83-3.11,1.96-4.11,3.39-1,1.43-1.48,3.05-1.43,4.86Z"/>
      <path class="cls-1" d="M289.45,85.99c-.91,0-1.58-.13-2.04-.39-.45-.26-.74-.64-.86-1.14-.12-.5-.18-1.08-.18-1.75v-28.16c0-.71.06-1.31.18-1.79.12-.48.4-.82.86-1.04.45-.21,1.15-.32,2.11-.32.86,0,1.51.11,1.96.32.45.21.76.52.93.93.17.41.25.87.25,1.39l-.29,2.14c.33-.62.73-1.24,1.18-1.86.45-.62,1.02-1.18,1.72-1.68.69-.5,1.52-.92,2.5-1.25.98-.33,2.18-.5,3.61-.5.71,0,1.39.06,2.04.18.64.12,1.26.3,1.86.54.6.24,1.11.51,1.54.82.43.31.77.64,1.04,1,.26.36.39.77.39,1.25,0,1.05-.33,1.94-1,2.68-.67.74-1.36,1.11-2.07,1.11-.62,0-1.07-.07-1.36-.21-.29-.14-.56-.32-.82-.54-.26-.21-.63-.4-1.11-.57-.48-.17-1.24-.25-2.29-.25-.71,0-1.46.14-2.25.43-.79.29-1.54.7-2.25,1.25-.71.55-1.3,1.25-1.75,2.11-.45.86-.68,1.88-.68,3.07v19.08c0,.67-.07,1.24-.21,1.71s-.44.83-.89,1.07c-.45.24-1.16.36-2.11.36Z"/>
      <path class="cls-1" d="M317.96,100.07c-.91,0-1.6-.13-2.07-.39-.48-.26-.79-.63-.93-1.11-.14-.48-.21-1.05-.21-1.71v-42.23c0-.67.07-1.24.21-1.71.14-.48.44-.84.89-1.11.45-.26,1.13-.39,2.04-.39,1.05,0,1.82.17,2.32.5.5.33.8.93.89,1.79v43.09c.05.67,0,1.25-.14,1.75-.14.5-.44.88-.89,1.14-.45.26-1.16.39-2.11.39ZM332.76,85.7c-2.33,0-4.44-.43-6.33-1.29s-3.49-2.06-4.82-3.61c-1.33-1.55-2.37-3.37-3.11-5.47-.74-2.1-1.08-4.41-1.04-6.93,0-2.48.36-4.76,1.07-6.86.71-2.1,1.75-3.92,3.11-5.47,1.36-1.55,2.98-2.74,4.86-3.57,1.88-.83,3.97-1.25,6.25-1.25s4.31.43,6.22,1.29c1.91.86,3.6,2.06,5.07,3.61,1.48,1.55,2.63,3.39,3.47,5.54.83,2.14,1.25,4.46,1.25,6.93s-.42,4.76-1.25,6.86c-.83,2.1-1.98,3.91-3.43,5.43-1.45,1.53-3.14,2.7-5.07,3.54-1.93.83-4.01,1.25-6.25,1.25ZM331.9,79.84c2,0,3.81-.49,5.43-1.46,1.62-.98,2.89-2.32,3.82-4.04s1.39-3.67,1.39-5.86-.46-4.13-1.39-5.82c-.93-1.69-2.2-3-3.82-3.93-1.62-.93-3.43-1.39-5.43-1.39s-3.8.48-5.39,1.43c-1.6.95-2.86,2.26-3.79,3.93-.93,1.67-1.39,3.6-1.39,5.79s.46,4.15,1.39,5.86c.93,1.71,2.19,3.06,3.79,4.04,1.6.98,3.39,1.46,5.39,1.46Z"/>
      <path class="cls-1" d="M359.48,85.99c-.91,0-1.58-.13-2.04-.39-.45-.26-.74-.64-.86-1.14-.12-.5-.18-1.08-.18-1.75v-28.16c0-.71.06-1.31.18-1.79.12-.48.4-.82.86-1.04.45-.21,1.15-.32,2.11-.32.86,0,1.51.11,1.96.32.45.21.76.52.93.93.17.41.25.87.25,1.39l-.29,2.14c.33-.62.73-1.24,1.18-1.86.45-.62,1.02-1.18,1.72-1.68.69-.5,1.52-.92,2.5-1.25.98-.33,2.18-.5,3.61-.5.71,0,1.39.06,2.04.18.64.12,1.26.3,1.86.54.6.24,1.11.51,1.54.82.43.31.77.64,1.04,1,.26.36.39.77.39,1.25,0,1.05-.33,1.94-1,2.68-.67.74-1.36,1.11-2.07,1.11-.62,0-1.07-.07-1.36-.21-.29-.14-.56-.32-.82-.54-.26-.21-.63-.4-1.11-.57-.48-.17-1.24-.25-2.29-.25-.71,0-1.46.14-2.25.43-.79.29-1.54.7-2.25,1.25-.71.55-1.3,1.25-1.75,2.11-.45.86-.68,1.88-.68,3.07v19.08c0,.67-.07,1.24-.21,1.71s-.44.83-.89,1.07c-.45.24-1.16.36-2.11.36Z"/>
      <path class="cls-1" d="M388.85,42.83c-1.05,0-1.83-.15-2.36-.46-.52-.31-.87-.75-1.04-1.32s-.25-1.24-.25-2,.08-1.42.25-1.96c.17-.55.52-.95,1.07-1.21.55-.26,1.35-.39,2.39-.39s1.76.14,2.29.43c.52.29.87.71,1.04,1.29.17.57.25,1.26.25,2.07,0,.71-.08,1.35-.25,1.89-.17.55-.51.96-1.04,1.25-.52.29-1.31.43-2.36.43ZM388.85,85.99c-.91,0-1.6-.13-2.07-.39-.48-.26-.78-.63-.89-1.11-.12-.47-.18-1.05-.18-1.71v-28.23c0-.62.07-1.18.21-1.68.14-.5.44-.87.89-1.11.45-.24,1.15-.36,2.11-.36s1.57.13,2,.39c.43.26.71.64.86,1.14.14.5.21,1.08.21,1.75v28.16c0,.67-.07,1.24-.21,1.71-.14.48-.44.83-.89,1.07-.45.24-1.13.36-2.04.36Z"/>
      <path class="cls-1" d="M412.86,86.35c-1.14,0-2.35-.12-3.61-.36-1.26-.24-2.47-.58-3.61-1.04-1.14-.45-2.17-.99-3.07-1.61-.91-.62-1.55-1.31-1.93-2.07-.24-.48-.38-.92-.43-1.32-.05-.4.01-.8.18-1.18.17-.38.46-.76.89-1.14.48-.57.94-.85,1.39-.82.45.03,1.06.35,1.82.96.52.33,1.13.7,1.82,1.11.69.41,1.43.76,2.21,1.07.79.31,1.57.57,2.36.79.79.21,1.56.32,2.32.32,2.19,0,3.95-.42,5.29-1.25s2-1.94,2-3.32c0-.81-.17-1.5-.5-2.07-.33-.57-.79-1.05-1.36-1.43-.57-.38-1.23-.73-1.97-1.04-.74-.31-1.54-.58-2.39-.82-.86-.24-1.74-.5-2.64-.79-1.24-.33-2.49-.71-3.75-1.14-1.26-.43-2.38-.99-3.36-1.68-.98-.69-1.78-1.57-2.39-2.64-.62-1.07-.93-2.44-.93-4.11,0-1.95.49-3.64,1.46-5.07.98-1.43,2.37-2.54,4.18-3.32,1.81-.79,3.95-1.18,6.43-1.18,1.05,0,2.02.07,2.93.21.9.14,1.77.37,2.61.68.83.31,1.63.67,2.39,1.07.76.41,1.5.89,2.22,1.46.86.57,1.31,1.19,1.36,1.86.05.67-.21,1.38-.79,2.14-.43.57-.91.94-1.43,1.11-.52.17-1.05.06-1.57-.32-.76-.57-1.57-1.08-2.43-1.54-.86-.45-1.74-.82-2.64-1.11-.91-.29-1.83-.43-2.79-.43-1.19,0-2.25.18-3.18.54-.93.36-1.64.88-2.14,1.57-.5.69-.75,1.46-.75,2.32,0,.76.2,1.38.61,1.86.4.48.93.88,1.57,1.21.64.33,1.4.63,2.29.89.88.26,1.8.51,2.75.75,1.38.33,2.8.73,4.25,1.18,1.45.46,2.76,1.05,3.93,1.79,1.17.74,2.12,1.71,2.86,2.93.74,1.21,1.11,2.82,1.11,4.82,0,3.14-1.24,5.62-3.72,7.43-2.48,1.81-5.77,2.72-9.86,2.72Z"/>
      <path class="cls-1" d="M450.45,86.35c-2.86,0-5.41-.48-7.65-1.43-2.24-.95-4.13-2.25-5.68-3.89-1.55-1.64-2.74-3.54-3.57-5.68-.83-2.14-1.25-4.46-1.25-6.93,0-3.29.76-6.22,2.29-8.79,1.52-2.57,3.64-4.61,6.36-6.11,2.71-1.5,5.81-2.25,9.29-2.25,2.38,0,4.51.37,6.4,1.11,1.88.74,3.49,1.73,4.82,2.96,1.33,1.24,2.36,2.62,3.07,4.14.71,1.53,1.07,3.05,1.07,4.57,0,2.43-.57,4.14-1.71,5.14-1.14,1-2.55,1.5-4.22,1.5h-20.65c-.05,2.05.51,3.82,1.68,5.32,1.17,1.5,2.64,2.66,4.43,3.46,1.79.81,3.58,1.21,5.39,1.21,1.29,0,2.42-.07,3.39-.21s1.82-.33,2.54-.57,1.32-.48,1.82-.71.96-.48,1.39-.71.83-.4,1.21-.5c.38-.1.79-.06,1.21.11.43.17.76.49,1,.96.29.38.48.74.57,1.07.09.33.14.69.14,1.07,0,.71-.57,1.46-1.71,2.25-1.14.79-2.73,1.46-4.75,2.04-2.03.57-4.32.86-6.9.86ZM439.02,66.41h17.94c.86,0,1.52-.12,2-.36.48-.24.71-.88.71-1.93,0-1.29-.41-2.48-1.21-3.57-.81-1.1-1.92-1.98-3.32-2.64-1.41-.67-3.04-1-4.89-1-2.05,0-3.94.42-5.68,1.25-1.74.83-3.11,1.96-4.11,3.39-1,1.43-1.48,3.05-1.43,4.86Z"/>
    </g>
  </g>
</svg>