<?xml version="1.0" encoding="UTF-8"?>
<svg id="Layer_2" xmlns="http://www.w3.org/2000/svg" viewBox="0 0 362.89 125.82">
  <defs>
    <style>
      .cls-1 {
        fill: #ffffff;
      }

      .cls-2 {
        fill: #ffffff;
      }
    </style>
  </defs>
  <g id="Layer_1-2" data-name="Layer_1">
    <g>
      <rect class="cls-2" y="41.03" width="10.3" height="43.76" rx="2.73" ry="2.73"/>
      <rect class="cls-2" x="18.02" y="22.79" width="10.3" height="80.23" rx="2.73" ry="2.73"/>
      <rect class="cls-2" x="36.04" y="41.03" width="10.3" height="43.76" rx="2.73" ry="2.73"/>
      <rect class="cls-2" x="54.06" y="22.79" width="10.3" height="80.23" rx="2.73" ry="2.73"/>
      <rect class="cls-2" x="72.08" width="10.3" height="125.82" rx="2.73" ry="2.73"/>
      <rect class="cls-2" x="90.1" y="22.79" width="10.3" height="80.23" rx="2.73" ry="2.73"/>
      <rect class="cls-2" x="106.83" y="41.03" width="10.3" height="43.76" rx="2.73" ry="2.73"/>
    </g>
    <g>
      <path class="cls-1" d="M136.93,85.08c-.91,0-1.6-.13-2.07-.39-.48-.26-.77-.64-.89-1.14-.12-.5-.18-1.08-.18-1.75v-43.38c0-.62.08-1.17.25-1.64.17-.48.49-.86.96-1.14.48-.29,1.14-.43,2-.43h15.65c2.24,0,4.33.35,6.29,1.04,1.95.69,3.66,1.74,5.11,3.14,1.45,1.41,2.58,3.11,3.39,5.11.81,2,1.21,4.31,1.21,6.93s-.41,4.92-1.21,6.9c-.81,1.98-1.95,3.66-3.43,5.04-1.48,1.38-3.18,2.42-5.11,3.11-1.93.69-4.04,1.04-6.32,1.04h-12.29v14.36c0,.67-.08,1.24-.25,1.71-.17.48-.48.85-.93,1.11-.45.26-1.18.39-2.18.39ZM140.29,61h12.36c1.91,0,3.57-.37,5-1.11,1.43-.74,2.55-1.83,3.36-3.29.81-1.45,1.21-3.23,1.21-5.32s-.39-3.72-1.18-5.15c-.79-1.43-1.89-2.52-3.32-3.29-1.43-.76-3.14-1.14-5.15-1.14h-12.29v19.29Z"/>
      <path class="cls-1" d="M179.81,41.92c-1.05,0-1.83-.15-2.36-.46-.52-.31-.87-.75-1.04-1.32s-.25-1.24-.25-2,.08-1.42.25-1.97c.17-.55.52-.95,1.07-1.21.55-.26,1.35-.39,2.39-.39s1.76.14,2.29.43c.52.29.87.71,1.04,1.29.17.57.25,1.26.25,2.07,0,.71-.08,1.35-.25,1.89-.17.55-.51.96-1.04,1.25-.52.29-1.31.43-2.36.43ZM179.81,85.08c-.91,0-1.6-.13-2.07-.39-.48-.26-.78-.63-.89-1.11-.12-.48-.18-1.05-.18-1.71v-28.23c0-.62.07-1.18.21-1.68.14-.5.44-.87.89-1.11.45-.24,1.15-.36,2.11-.36s1.57.13,2,.39c.43.26.71.64.86,1.14.14.5.21,1.08.21,1.75v28.16c0,.67-.07,1.24-.21,1.71-.14.48-.44.83-.89,1.07-.45.24-1.13.36-2.04.36Z"/>
      <path class="cls-1" d="M195.46,85.01c-.91,0-1.58-.13-2.04-.39-.45-.26-.74-.63-.86-1.11-.12-.48-.18-1.05-.18-1.71v-28.37c0-.62.06-1.14.18-1.57.12-.43.42-.76.89-1,.48-.24,1.17-.36,2.07-.36.71,0,1.27.08,1.68.25.4.17.69.39.86.68.17.29.27.6.32.93.05.33.07.64.07.93l-.14,3.29c.48-.81,1.07-1.58,1.79-2.32.71-.74,1.55-1.4,2.5-2,.95-.6,1.99-1.06,3.11-1.39,1.12-.33,2.32-.5,3.61-.5,2.1,0,4.02.37,5.79,1.11,1.76.74,3.27,1.81,4.54,3.22,1.26,1.41,2.24,3.08,2.93,5.04.69,1.95,1.04,4.17,1.04,6.65v15.51c0,.67-.06,1.24-.18,1.71-.12.48-.41.83-.86,1.07-.45.24-1.16.36-2.11.36s-1.6-.13-2.07-.39c-.48-.26-.78-.63-.89-1.11-.12-.48-.18-1.05-.18-1.71v-15.51c0-2-.35-3.74-1.04-5.22-.69-1.48-1.69-2.62-3-3.43-1.31-.81-2.99-1.21-5.04-1.21s-3.66.41-5.11,1.21c-1.45.81-2.57,1.95-3.36,3.43-.79,1.48-1.18,3.22-1.18,5.22v15.58c0,.67-.07,1.24-.21,1.71-.14.48-.44.83-.89,1.07-.45.24-1.13.36-2.04.36Z"/>
      <path class="cls-1" d="M246.48,84.3c-2.33,0-4.47-.42-6.4-1.25-1.93-.83-3.61-2.01-5.04-3.54-1.43-1.52-2.54-3.31-3.32-5.36-.79-2.05-1.18-4.29-1.18-6.72s.39-4.67,1.18-6.72c.79-2.05,1.89-3.83,3.32-5.36,1.43-1.52,3.11-2.7,5.04-3.54,1.93-.83,4.01-1.25,6.25-1.25s4.07.41,5.79,1.21c1.72.81,3.17,1.96,4.36,3.47,1.19,1.5,2.11,3.28,2.75,5.32.64,2.05.96,4.34.96,6.86,0,3.43-.56,6.41-1.68,8.93-1.12,2.53-2.69,4.48-4.72,5.86-2.03,1.38-4.47,2.07-7.33,2.07ZM246.69,99.09c-1.71,0-3.32-.19-4.82-.57-1.5-.38-2.82-.88-3.97-1.5s-2.05-1.29-2.71-2c-.67-.71-1-1.38-1-2,0-.48.07-.87.21-1.18.14-.31.36-.63.64-.96.48-.48.86-.81,1.14-1,.29-.19.67-.29,1.14-.29s.95.2,1.43.61c.48.4,1.06.86,1.75,1.36.69.5,1.55.95,2.57,1.36,1.02.4,2.3.61,3.82.61s2.92-.24,4.18-.71c1.26-.48,2.33-1.19,3.22-2.14.88-.95,1.57-2.11,2.07-3.47.5-1.36.75-2.89.75-4.61l-.14-29.73c.05-.9.32-1.55.82-1.93.5-.38,1.3-.57,2.39-.57.86,0,1.5.13,1.93.39.43.26.7.62.82,1.07.12.45.18,1.01.18,1.68v29.59c0,2.52-.41,4.78-1.21,6.75-.81,1.98-1.95,3.66-3.43,5.04-1.48,1.38-3.22,2.43-5.22,3.14s-4.19,1.07-6.57,1.07ZM246.77,78.44c1.95,0,3.69-.48,5.22-1.43,1.52-.95,2.74-2.26,3.64-3.93.9-1.67,1.36-3.6,1.36-5.79s-.45-4.04-1.36-5.68c-.91-1.64-2.13-2.92-3.68-3.82-1.55-.9-3.3-1.36-5.25-1.36s-3.69.46-5.22,1.39c-1.53.93-2.7,2.2-3.54,3.82-.83,1.62-1.25,3.53-1.25,5.72s.43,4.11,1.29,5.75c.86,1.64,2.05,2.94,3.57,3.89,1.52.95,3.26,1.43,5.22,1.43Z"/>
      <path class="cls-1" d="M276.14,85.08c-.86,0-1.52-.14-2-.43-.48-.29-.8-.68-.96-1.18-.17-.5-.25-1.06-.25-1.68v-43.38c0-.62.08-1.17.25-1.64.17-.48.49-.86.96-1.14.48-.29,1.19-.43,2.14-.43.71,0,1.29.05,1.71.14.43.1.77.23,1.04.39.26.17.54.42.82.75l18.65,27.01h-2.22l18.87-27.23c.29-.29.57-.5.86-.64.29-.14.65-.25,1.11-.32.45-.07.99-.11,1.61-.11.9,0,1.58.14,2.04.43.45.29.77.68.96,1.18.19.5.29,1.08.29,1.75v43.38c0,.57-.1,1.1-.29,1.57-.19.48-.52.86-1,1.14-.48.29-1.17.43-2.07.43-.86,0-1.51-.14-1.97-.43-.45-.29-.76-.68-.93-1.18-.17-.5-.25-1.06-.25-1.68v-35.8l-15.29,22.51c-.14.19-.33.39-.57.61-.24.21-.54.41-.89.57-.36.17-.82.25-1.39.25-.52,0-.95-.08-1.29-.25-.33-.17-.61-.36-.82-.57-.21-.21-.44-.46-.68-.75l-15.22-22.37v35.95c0,.57-.08,1.1-.25,1.57-.17.48-.48.86-.93,1.14-.45.29-1.13.43-2.04.43Z"/>
      <path class="cls-1" d="M347.74,85.44c-2.86,0-5.41-.48-7.65-1.43s-4.13-2.25-5.68-3.89c-1.55-1.64-2.74-3.54-3.57-5.68-.83-2.14-1.25-4.45-1.25-6.93,0-3.29.76-6.22,2.29-8.79,1.52-2.57,3.64-4.61,6.36-6.11,2.71-1.5,5.81-2.25,9.29-2.25,2.38,0,4.51.37,6.4,1.11,1.88.74,3.49,1.73,4.82,2.97,1.33,1.24,2.36,2.62,3.07,4.14.71,1.53,1.07,3.05,1.07,4.57,0,2.43-.57,4.15-1.71,5.15-1.14,1-2.55,1.5-4.22,1.5h-20.65c-.05,2.05.51,3.82,1.68,5.32,1.17,1.5,2.64,2.66,4.43,3.47,1.79.81,3.58,1.21,5.39,1.21,1.29,0,2.42-.07,3.39-.21s1.82-.33,2.54-.57,1.32-.48,1.82-.71c.5-.24.96-.48,1.39-.71.43-.24.83-.4,1.21-.5.38-.09.79-.06,1.21.11s.76.49,1,.96c.29.38.48.74.57,1.07.09.33.14.69.14,1.07,0,.71-.57,1.46-1.71,2.25s-2.73,1.46-4.75,2.04c-2.03.57-4.32.86-6.9.86ZM336.31,65.5h17.94c.86,0,1.52-.12,2-.36.48-.24.71-.88.71-1.93,0-1.29-.41-2.48-1.21-3.57-.81-1.1-1.92-1.98-3.32-2.64-1.41-.67-3.04-1-4.89-1-2.05,0-3.94.42-5.68,1.25-1.74.83-3.11,1.96-4.11,3.39-1,1.43-1.48,3.05-1.43,4.86Z"/>
    </g>
  </g>
</svg>